<?xml version="1.0" encoding="UTF-8" standalone="no"?>
<!-- Created with Inkscape (http://www.inkscape.org/) -->

<svg
   xmlns:dc="http://purl.org/dc/elements/1.1/"
   xmlns:cc="http://creativecommons.org/ns#"
   xmlns:rdf="http://www.w3.org/1999/02/22-rdf-syntax-ns#"
   xmlns:svg="http://www.w3.org/2000/svg"
   xmlns="http://www.w3.org/2000/svg"
   xmlns:sodipodi="http://sodipodi.sourceforge.net/DTD/sodipodi-0.dtd"
   xmlns:inkscape="http://www.inkscape.org/namespaces/inkscape"
   width="92"
   height="92"
   id="svg6170"
   version="1.1"
   inkscape:version="0.48.4 r9939"
   sodipodi:docname="checkmark.svg">
  <defs
     id="defs6172" />
  <sodipodi:namedview
     id="base"
     pagecolor="#ffffff"
     bordercolor="#666666"
     borderopacity="1.0"
     inkscape:pageopacity="0.0"
     inkscape:pageshadow="2"
     inkscape:zoom="3.959798"
     inkscape:cx="0.702745"
     inkscape:cy="53.805703"
     inkscape:document-units="px"
     inkscape:current-layer="layer1"
     showgrid="true"
     inkscape:snap-bbox="true"
     inkscape:window-width="1366"
     inkscape:window-height="713"
     inkscape:window-x="0"
     inkscape:window-y="30"
     inkscape:window-maximized="1">
    <inkscape:grid
       type="xygrid"
       id="grid6191"
       empspacing="8"
       visible="true"
       enabled="true"
       snapvisiblegridlinesonly="true" />
  </sodipodi:namedview>
  <metadata
     id="metadata6175">
    <rdf:RDF>
      <cc:Work
         rdf:about="">
        <dc:format>image/svg+xml</dc:format>
        <dc:type
           rdf:resource="http://purl.org/dc/dcmitype/StillImage" />
        <dc:title></dc:title>
      </cc:Work>
    </rdf:RDF>
  </metadata>
  <g
     inkscape:label="Layer 1"
     inkscape:groupmode="layer"
     id="layer1"
     transform="translate(0,-960.36218)">
    <g
       id="g6187"
       transform="matrix(3.5999526,0,0,3.5999526,-196.3539,-2478.6671)">
      <path
         id="path4099"
         d="m 67.071429,958.07662 c -5.52285,0 -10,4.4771 -10,10 0,5.5228 4.47715,10 10,10 5.52285,0 10,-4.4772 10,-10 0,-1.9392 -0.57582,-3.7484 -1.53125,-5.2813 l -1.4375,1.4375 c 0.004,0.01 -0.004,0.023 0,0.031 0.61578,1.1336 0.96875,2.4318 0.96875,3.8125 0,4.4183 -3.58172,8 -8,8 -4.41828,0 -8,-3.5817 -8,-8 0,-4.4182 3.58172,-8 8,-8 2.30374,0 4.38402,0.9729 5.84375,2.5313 l 1.40625,-1.4063 c -1.82238,-1.922 -4.3923,-3.125 -7.25,-3.125 z"
         style="fill:#00e5ff;fill-opacity:1;stroke:none"
         inkscape:connector-curvature="0" />
      <path
         id="path4229"
         d="m 68.071429,970.24662 -4.17,-4.17 -1.42,1.41 5.59,5.59 12,-12 -1.41,-1.41 z"
         inkscape:connector-curvature="0"
         style="fill:#00e5ff;fill-opacity:1" />
    </g>
  </g>
</svg>
