<?xml version="1.0" encoding="UTF-8" standalone="no"?>
<!-- Created with Inkscape (http://www.inkscape.org/) -->

<svg
   xmlns:dc="http://purl.org/dc/elements/1.1/"
   xmlns:cc="http://creativecommons.org/ns#"
   xmlns:rdf="http://www.w3.org/1999/02/22-rdf-syntax-ns#"
   xmlns:svg="http://www.w3.org/2000/svg"
   xmlns="http://www.w3.org/2000/svg"
   xmlns:sodipodi="http://sodipodi.sourceforge.net/DTD/sodipodi-0.dtd"
   xmlns:inkscape="http://www.inkscape.org/namespaces/inkscape"
   width="124"
   height="32"
   id="svg5020"
   version="1.1"
   inkscape:version="0.48.4 r9939"
   sodipodi:docname="logo.svg"
   inkscape:export-filename="/home/florian/Work/2016/InsurHack/InsurHack/src/assets/images/logo.png"
   inkscape:export-xdpi="180"
   inkscape:export-ydpi="180">
  <defs
     id="defs5022" />
  <sodipodi:namedview
     id="base"
     pagecolor="#ffffff"
     bordercolor="#666666"
     borderopacity="1.0"
     inkscape:pageopacity="0.0"
     inkscape:pageshadow="2"
     inkscape:zoom="3.959798"
     inkscape:cx="44.616489"
     inkscape:cy="17.841399"
     inkscape:document-units="px"
     inkscape:current-layer="layer1"
     showgrid="true"
     inkscape:window-width="1366"
     inkscape:window-height="713"
     inkscape:window-x="0"
     inkscape:window-y="30"
     inkscape:window-maximized="1"
     showguides="true"
     inkscape:guide-bbox="true">
    <inkscape:grid
       type="xygrid"
       id="grid5058"
       empspacing="8"
       visible="true"
       enabled="true"
       snapvisiblegridlinesonly="true" />
    <sodipodi:guide
       orientation="0,1"
       position="120,16"
       id="guide5079" />
  </sodipodi:namedview>
  <metadata
     id="metadata5025">
    <rdf:RDF>
      <cc:Work
         rdf:about="">
        <dc:format>image/svg+xml</dc:format>
        <dc:type
           rdf:resource="http://purl.org/dc/dcmitype/StillImage" />
        <dc:title></dc:title>
      </cc:Work>
    </rdf:RDF>
  </metadata>
  <g
     inkscape:label="Layer 1"
     inkscape:groupmode="layer"
     id="layer1"
     transform="translate(0,-1020.3622)">
    <text
       xml:space="preserve"
       style="font-size:40px;font-style:normal;font-variant:normal;font-weight:normal;font-stretch:normal;line-height:125%;letter-spacing:0px;word-spacing:0px;fill:#546e7a;fill-opacity:1;stroke:none;font-family:'Lobster 1.4';-inkscape-font-specification:'Lobster 1.4'"
       x="27.859379"
       y="1043.2216"
       id="text4091"
       sodipodi:linespacing="125%"><tspan
         sodipodi:role="line"
         id="tspan4093"
         x="27.859379"
         y="1043.2216"
         style="font-size:24px;fill:#546e7a;fill-opacity:1">instasure</tspan></text>
    <path
       inkscape:connector-curvature="0"
       style="fill:#00e5ff;fill-opacity:1;stroke:none"
       d="m 10,1025.3622 c -5.52285,0 -10,4.4771 -10,10 0,5.5228 4.47715,10 10,10 5.52285,0 10,-4.4772 10,-10 0,-1.9392 -0.57582,-3.7484 -1.53125,-5.2813 l -1.4375,1.4375 c 0.004,0.01 -0.004,0.023 0,0.031 0.61578,1.1336 0.96875,2.4318 0.96875,3.8125 0,4.4183 -3.58172,8 -8,8 -4.41828,0 -8,-3.5817 -8,-8 0,-4.4182 3.58172,-8 8,-8 2.30374,0 4.38402,0.9729 5.84375,2.5313 l 1.40625,-1.4063 c -1.82238,-1.922 -4.3923,-3.125 -7.25,-3.125 z"
       id="path4099" />
    <path
       style="fill:none"
       inkscape:connector-curvature="0"
       d="m 2,1023.3622 h 24 v 24 H 2 z"
       id="path4227" />
    <path
       style="fill:#00e5ff;fill-opacity:1"
       inkscape:connector-curvature="0"
       d="m 11,1037.5322 -4.17,-4.17 -1.42,1.41 5.59,5.59 12,-12 -1.41,-1.41 z"
       id="path4229" />
  </g>
</svg>
