<?xml version="1.0" encoding="UTF-8" standalone="no"?>
<!-- Created with Inkscape (http://www.inkscape.org/) -->

<svg
   xmlns:dc="http://purl.org/dc/elements/1.1/"
   xmlns:cc="http://creativecommons.org/ns#"
   xmlns:rdf="http://www.w3.org/1999/02/22-rdf-syntax-ns#"
   xmlns:svg="http://www.w3.org/2000/svg"
   xmlns="http://www.w3.org/2000/svg"
   xmlns:xlink="http://www.w3.org/1999/xlink"
   xmlns:sodipodi="http://sodipodi.sourceforge.net/DTD/sodipodi-0.dtd"
   xmlns:inkscape="http://www.inkscape.org/namespaces/inkscape"
   width="360"
   height="640"
   id="svg2"
   version="1.1"
   inkscape:version="0.48.4 r9939"
   sodipodi:docname="individualzie.svg"
   inkscape:export-filename="/home/florian/Work/2016/InsurHack/InsurHack/designs/step1.png"
   inkscape:export-xdpi="180"
   inkscape:export-ydpi="180">
  <defs
     id="defs4">
    <clipPath
       clipPathUnits="userSpaceOnUse"
       id="clipPath5361">
      <rect
         y="756.36218"
         x="0"
         height="135.99998"
         width="360"
         id="rect5363"
         style="fill:#ffffff;fill-opacity:1;stroke:none" />
    </clipPath>
    <clipPath
       clipPathUnits="userSpaceOnUse"
       id="clipPath4986">
      <path
         sodipodi:type="arc"
         style="fill:#cb4a4a;fill-opacity:1;stroke:none"
         id="path4988"
         sodipodi:cx="328"
         sodipodi:cy="96"
         sodipodi:rx="16"
         sodipodi:ry="16"
         d="m 344,96 a 16,16 0 1 1 -32,0 16,16 0 1 1 32,0 z"
         transform="translate(0,412.36217)" />
    </clipPath>
  </defs>
  <sodipodi:namedview
     id="base"
     pagecolor="#ffffff"
     bordercolor="#878787"
     borderopacity="1"
     inkscape:pageopacity="1"
     inkscape:pageshadow="2"
     inkscape:zoom="2"
     inkscape:cx="160.52544"
     inkscape:cy="469.1289"
     inkscape:document-units="px"
     inkscape:current-layer="layer1"
     showgrid="true"
     inkscape:snap-bbox="true"
     showguides="false"
     inkscape:guide-bbox="true"
     inkscape:window-width="1366"
     inkscape:window-height="713"
     inkscape:window-x="0"
     inkscape:window-y="30"
     inkscape:window-maximized="1"
     inkscape:snap-page="true"
     inkscape:showpageshadow="false"
     showborder="false">
    <inkscape:grid
       type="xygrid"
       id="grid2985"
       empspacing="8"
       visible="true"
       enabled="true"
       snapvisiblegridlinesonly="true" />
    <sodipodi:guide
       orientation="0,1"
       position="168,560"
       id="guide3764" />
    <sodipodi:guide
       orientation="1,0"
       position="0,512"
       id="guide3770" />
    <sodipodi:guide
       orientation="1,0"
       position="360,528"
       id="guide3772" />
    <sodipodi:guide
       orientation="0,1"
       position="80,528"
       id="guide5001" />
    <sodipodi:guide
       orientation="0,1"
       position="128,0"
       id="guide5003" />
    <sodipodi:guide
       orientation="0,1"
       position="384,640"
       id="guide4095" />
    <sodipodi:guide
       orientation="1,0"
       position="32,416"
       id="guide4990" />
    <sodipodi:guide
       orientation="1,0"
       position="328,336"
       id="guide4992" />
  </sodipodi:namedview>
  <metadata
     id="metadata7">
    <rdf:RDF>
      <cc:Work
         rdf:about="">
        <dc:format>image/svg+xml</dc:format>
        <dc:type
           rdf:resource="http://purl.org/dc/dcmitype/StillImage" />
        <dc:title></dc:title>
      </cc:Work>
    </rdf:RDF>
  </metadata>
  <g
     inkscape:label="Layer 1"
     inkscape:groupmode="layer"
     id="layer1"
     transform="translate(0,-412.36217)">
    <rect
       style="fill:#f6f6f6;fill-opacity:1;stroke:none"
       id="rect3313"
       width="360"
       height="64"
       x="0"
       y="0"
       transform="translate(0,412.36217)" />
    <rect
       style="fill:#dddddd;fill-opacity:1;stroke:none"
       id="rect4083"
       width="344"
       height="24"
       x="8"
       y="32"
       transform="translate(0,412.36217)"
       rx="4"
       ry="4" />
    <rect
       style="fill:#d0d0d0;fill-opacity:1;stroke:none"
       id="rect4085"
       width="360"
       height="1"
       x="0"
       y="64"
       transform="translate(0,412.36217)" />
    <image
       y="492.36218"
       x="312"
       id="image4979"
       xlink:href="file:///home/florian/Downloads/UI%20faces%20-%20Authorized/25.jpg"
       height="32"
       width="32"
       clip-path="url(#clipPath4986)" />
    <text
       xml:space="preserve"
       style="font-size:40px;font-style:normal;font-variant:normal;font-weight:normal;font-stretch:normal;line-height:125%;letter-spacing:0px;word-spacing:0px;fill:#407899;fill-opacity:1;stroke:none;font-family:'Lobster 1.4';-inkscape-font-specification:'Lobster 1.4'"
       x="43.859375"
       y="516.22156"
       id="text4091"
       sodipodi:linespacing="125%"><tspan
         sodipodi:role="line"
         id="tspan4093"
         x="43.859375"
         y="516.22156"
         style="font-size:24px;fill:#407899;fill-opacity:1">instasure</tspan></text>
    <rect
       style="fill:#407899;fill-opacity:1;stroke:none"
       id="rect4097"
       width="360"
       height="64"
       x="0"
       y="576"
       transform="translate(0,412.36217)" />
    <path
       style="fill:#61e8e1;fill-opacity:1;stroke:none"
       d="M 26 86 C 20.47715 86 16 90.47715 16 96 C 16 101.52285 20.47715 106 26 106 C 31.52285 106 36 101.52285 36 96 C 36 94.06078 35.424176 92.251572 34.46875 90.71875 L 33.03125 92.15625 C 33.035515 92.164039 33.02701 92.179695 33.03125 92.1875 C 33.647029 93.321046 34 94.619288 34 96 C 34 100.41828 30.41828 104 26 104 C 21.58172 104 18 100.41828 18 96 C 18 91.58172 21.58172 88 26 88 C 28.30374 88 30.384022 88.972871 31.84375 90.53125 L 33.25 89.125 C 31.42762 87.202986 28.857702 86 26 86 z "
       transform="translate(0,412.36217)"
       id="path4099" />
    <path
       style="fill:none"
       inkscape:connector-curvature="0"
       d="m 18,494.36217 h 24 v 24 H 18 z"
       id="path4227" />
    <path
       style="fill:#61e8e1;fill-opacity:1"
       inkscape:connector-curvature="0"
       d="m 27,510.53217 -4.17,-4.17 -1.42,1.41 5.59,5.59 12,-12 -1.41,-1.41 z"
       id="path4229" />
    <path
       style="fill:#61e8e1;fill-opacity:1;stroke:none"
       d="m 108,1004.3622 c -8.836556,0 -16,7.1634 -16,16 0,8.8365 7.163444,16 16,16 8.83656,0 16,-7.1635 16,-16 0,-8.8366 -7.16344,-16 -16,-16 z m 0,2 c 7.73199,0 14,6.268 14,14 0,7.732 -6.26801,14 -14,14 -7.73199,0 -14,-6.268 -14,-14 0,-7.732 6.26801,-14 14,-14 z"
       id="path4246"
       inkscape:connector-curvature="0" />
    <path
       id="path4255"
       d="m 156,1004.3622 c -8.83656,0 -16,7.1634 -16,16 0,8.8365 7.16344,16 16,16 8.83656,0 16,-7.1635 16,-16 0,-8.8366 -7.16344,-16 -16,-16 z m 0,2 c 7.73199,0 14,6.268 14,14 0,7.732 -6.26801,14 -14,14 -7.73199,0 -14,-6.268 -14,-14 0,-7.732 6.26801,-14 14,-14 z"
       style="fill:#61e8e1;fill-opacity:1;stroke:none"
       inkscape:connector-curvature="0" />
    <path
       inkscape:connector-curvature="0"
       style="fill:#61e8e1;fill-opacity:1;stroke:none"
       d="m 204,1004.3622 c -8.83656,0 -16,7.1634 -16,16 0,8.8365 7.16344,16 16,16 8.83656,0 16,-7.1635 16,-16 0,-8.8366 -7.16344,-16 -16,-16 z m 0,2 c 7.73199,0 14,6.268 14,14 0,7.732 -6.26801,14 -14,14 -7.73199,0 -14,-6.268 -14,-14 0,-7.732 6.26801,-14 14,-14 z"
       id="path4257" />
    <path
       id="path4259"
       d="m 252,1004.3622 c -8.83656,0 -16,7.1634 -16,16 0,8.8365 7.16344,16 16,16 8.83656,0 16,-7.1635 16,-16 0,-8.8366 -7.16344,-16 -16,-16 z m 0,2 c 7.73199,0 14,6.268 14,14 0,7.732 -6.26801,14 -14,14 -7.73199,0 -14,-6.268 -14,-14 0,-7.732 6.26801,-14 14,-14 z"
       style="fill:#61e8e1;fill-opacity:1;stroke:none"
       inkscape:connector-curvature="0" />
    <text
       xml:space="preserve"
       style="font-size:40px;font-style:normal;font-variant:normal;font-weight:normal;font-stretch:normal;line-height:125%;letter-spacing:0px;word-spacing:0px;fill:#61e8e1;fill-opacity:1;stroke:none;font-family:'Lobster 1.4';-inkscape-font-specification:'Lobster 1.4'"
       x="107.70606"
       y="1025.5985"
       id="text4261"
       sodipodi:linespacing="125%"><tspan
         sodipodi:role="line"
         id="tspan4263"
         x="105.5835"
         y="1025.5985"
         style="font-size:16px;font-weight:normal;fill:#61e8e1;fill-opacity:1;-inkscape-font-specification:'Lobster 1.4,';text-anchor:middle;text-align:center">1</tspan></text>
    <text
       sodipodi:linespacing="125%"
       id="text4265"
       y="1025.5985"
       x="155.70605"
       style="font-size:40px;font-style:normal;font-variant:normal;font-weight:normal;font-stretch:normal;line-height:125%;letter-spacing:0px;word-spacing:0px;fill:#61e8e1;fill-opacity:1;stroke:none;font-family:'Lobster 1.4';-inkscape-font-specification:'Lobster 1.4'"
       xml:space="preserve"><tspan
         style="font-size:16px;font-weight:normal;text-align:center;text-anchor:middle;fill:#61e8e1;fill-opacity:1;-inkscape-font-specification:'Lobster 1.4,'"
         y="1025.5985"
         x="155.70605"
         id="tspan4267"
         sodipodi:role="line">2</tspan></text>
    <text
       xml:space="preserve"
       style="font-size:40px;font-style:normal;font-variant:normal;font-weight:normal;font-stretch:normal;line-height:125%;letter-spacing:0px;word-spacing:0px;fill:#61e8e1;fill-opacity:1;stroke:none;font-family:'Lobster 1.4';-inkscape-font-specification:'Lobster 1.4'"
       x="203.70605"
       y="1025.5985"
       id="text4269"
       sodipodi:linespacing="125%"><tspan
         sodipodi:role="line"
         id="tspan4271"
         x="203.70605"
         y="1025.5985"
         style="font-size:16px;font-weight:normal;text-align:center;text-anchor:middle;fill:#61e8e1;fill-opacity:1;-inkscape-font-specification:'Lobster 1.4,'">3</tspan></text>
    <text
       sodipodi:linespacing="125%"
       id="text4273"
       y="1025.5985"
       x="251.70605"
       style="font-size:40px;font-style:normal;font-variant:normal;font-weight:normal;font-stretch:normal;line-height:125%;letter-spacing:0px;word-spacing:0px;fill:#61e8e1;fill-opacity:1;stroke:none;font-family:'Lobster 1.4';-inkscape-font-specification:'Lobster 1.4'"
       xml:space="preserve"><tspan
         style="font-size:16px;font-weight:normal;text-align:center;text-anchor:middle;fill:#61e8e1;fill-opacity:1;-inkscape-font-specification:'Lobster 1.4,'"
         y="1025.5985"
         x="251.70605"
         id="tspan4275"
         sodipodi:role="line">4</tspan></text>
    <path
       style="fill:#ffffff;fill-opacity:1"
       inkscape:connector-curvature="0"
       d="m 320,953.52217 -8.34,-8.34 -2.84,2.82 11.18,11.18 24,-24 -2.82,-2.82 z"
       id="path4229-4" />
    <path
       transform="matrix(1.1666667,0,0,1.1666667,-73.333333,303.02884)"
       d="m 344,536 a 24,24 0 1 1 -48,0 24,24 0 1 1 48,0 z"
       sodipodi:ry="24"
       sodipodi:rx="24"
       sodipodi:cy="536"
       sodipodi:cx="320"
       id="path4297"
       style="fill:#f21d51;fill-opacity:1;stroke:none"
       sodipodi:type="arc" />
    <text
       xml:space="preserve"
       style="font-size:40px;font-style:normal;font-variant:normal;font-weight:300;font-stretch:normal;line-height:125%;letter-spacing:0px;word-spacing:0px;fill:#000000;fill-opacity:1;stroke:none;font-family:Helvetica Neue;-inkscape-font-specification:Helvetica Neue"
       x="32"
       y="572.36218"
       id="text4301"
       sodipodi:linespacing="125%"><tspan
         sodipodi:role="line"
         id="tspan4303"
         x="32"
         y="572.36218"
         style="font-size:20px">Lebenssituation wählen</tspan></text>
    <g
       style="fill:#ffffff"
       id="g4433"
       transform="matrix(1.5,0,0,1.5,282.00001,910.73719)">
      <path
         id="path4423"
         d="M 8.59,16.34 13.17,11.75 8.59,7.16 10,5.75 l 6,6 -6,6 z"
         inkscape:connector-curvature="0" />
      <path
         id="path4425"
         d="m 0,-0.25 h 24 v 24 H 0 z"
         inkscape:connector-curvature="0"
         style="fill:none" />
    </g>
    <rect
       style="fill:#f0f0f0;fill-opacity:1;stroke:none;stroke-opacity:1"
       id="rect4997"
       width="296"
       height="56"
       x="32"
       y="184"
       transform="translate(0,412.36217)"
       rx="4" />
    <rect
       rx="4"
       y="668.36218"
       x="32"
       height="56"
       width="296"
       id="rect4999"
       style="fill:#f0f0f0;fill-opacity:1;stroke:none" />
    <rect
       style="fill:#f0f0f0;fill-opacity:1;stroke:none"
       id="rect5001"
       width="296"
       height="56"
       x="32"
       y="740.36218"
       rx="4" />
    <rect
       rx="4"
       y="812.36218"
       x="32"
       height="56"
       width="296"
       id="rect5003"
       style="fill:#f0f0f0;fill-opacity:1;stroke:none" />
  </g>
</svg>
